<?xml version="1.0" encoding="UTF-8" standalone="no"?>
<!-- Created with Inkscape (http://www.inkscape.org/) -->

<svg
   version="1.1"
   id="svg2"
   width="6800"
   height="1248"
   viewBox="0 0 6800 1248"
   sodipodi:docname="CameraZones.svg"
   inkscape:version="1.2.2 (732a01da63, 2022-12-09)"
   xml:space="preserve"
   xmlns:inkscape="http://www.inkscape.org/namespaces/inkscape"
   xmlns:sodipodi="http://sodipodi.sourceforge.net/DTD/sodipodi-0.dtd"
   xmlns="http://www.w3.org/2000/svg"
   xmlns:svg="http://www.w3.org/2000/svg"><defs
     id="defs6" /><sodipodi:namedview
     id="namedview4"
     pagecolor="#ffffff"
     bordercolor="#000000"
     borderopacity="0.25"
     inkscape:showpageshadow="2"
     inkscape:pageopacity="0.0"
     inkscape:pagecheckerboard="0"
     inkscape:deskcolor="#d1d1d1"
     showgrid="false"
     inkscape:zoom="0.50000001"
     inkscape:cx="688.99998"
     inkscape:cy="-77.999998"
     inkscape:window-width="2560"
     inkscape:window-height="1334"
     inkscape:window-x="-11"
     inkscape:window-y="-11"
     inkscape:window-maximized="1"
     inkscape:current-layer="g8" /><g
     inkscape:groupmode="layer"
     inkscape:label="Image"
     id="g8"><path
       style="fill:#990101"
       d="M 0,624 H 1600 V 832 H 0 Z"
       id="path310"
       sodipodi:nodetypes="ccccc" /><path
       style="fill:#990101"
       d="m 1600,624 h 400 v 208 h -400 z"
       id="path310-7"
       sodipodi:nodetypes="ccccc" /><path
       style="fill:#990101"
       d="m 2000,624 h 400 v 208 h -400 z"
       id="path310-7-0"
       sodipodi:nodetypes="ccccc" /><path
       style="fill:#990101"
       d="m 2000,416 h 400 v 208 h -400 z"
       id="path605"
       sodipodi:nodetypes="ccccc" /><path
       style="fill:#990101"
       d="m 2400,416 h 400 v 208 h -400 z"
       id="path597"
       sodipodi:nodetypes="ccccc" /><path
       style="fill:#990101"
       d="m 2800,416 h 400 v 208 h -400 z"
       id="path651"
       sodipodi:nodetypes="ccccc" /><path
       style="fill:#990101"
       d="m 2800,624 h 400 v 208 h -400 z"
       id="path683"
       sodipodi:nodetypes="ccccc" /><path
       style="fill:#990101"
       d="m 2800,832 h 400 v 208 h -400 z"
       id="path675"
       sodipodi:nodetypes="ccccc" /><path
       style="fill:#990101"
       d="m 2800,1040 h 400 v 208 h -400 z"
       id="path685"
       sodipodi:nodetypes="ccccc" /><path
       style="fill:#990101"
       d="m 2400,1040 h 400 v 208 h -400 z"
       id="path687"
       sodipodi:nodetypes="ccccc" /><path
       style="fill:#990101"
       d="m 3200,1040 h 800 v 208 h -800 z"
       id="path689"
       sodipodi:nodetypes="ccccc" /><path
       style="fill:#990101"
       d="m 4000,1040 h 400 v 208 h -400 z"
       id="path691"
       sodipodi:nodetypes="ccccc" /><path
       style="fill:#990101"
       d="m 4000,832.00012 h 400 v 207.99998 h -400 z"
       id="path693"
       sodipodi:nodetypes="ccccc" /><path
       style="fill:#990101"
       d="m 4400,832.00012 576,0 v 207.99998 l -576,0 z"
       id="path695"
       sodipodi:nodetypes="ccccc" /><path
       style="fill:#990101"
       d="m 4000,624 h 400 v 207.99998 h -400 z"
       id="path697"
       sodipodi:nodetypes="ccccc" /><path
       style="fill:#990101"
       d="m 4000,416 h 400 v 207.99998 h -400 z"
       id="path699"
       sodipodi:nodetypes="ccccc" /><path
       style="fill:#990101"
       d="m 4400,416 h 800 v 207.99998 h -800 z"
       id="path701"
       sodipodi:nodetypes="ccccc" /><path
       style="fill:#990101"
       d="m 5200,416 h 400 v 207.99998 h -400 z"
       id="path705"
       sodipodi:nodetypes="ccccc" /><path
       style="fill:#990101"
       d="m 5600,416 h 400 v 207.99998 h -400 z"
       id="path707"
       sodipodi:nodetypes="ccccc" /><path
       style="fill:#990101"
       d="m 5600,208 h 400 v 207.99998 h -400 z"
       id="path709"
       sodipodi:nodetypes="ccccc" /><path
       style="fill:#990101"
       d="m 5600,0 h 400 v 207.99998 h -400 z"
       id="path711"
       sodipodi:nodetypes="ccccc" /><path
       style="fill:#990101"
       d="m 5104,0 h 496 v 207.99998 h -496 z"
       id="path713"
       sodipodi:nodetypes="ccccc" /><path
       style="fill:#990101"
       d="m 6000,0 h 400 v 207.99998 h -400 z"
       id="path715"
       sodipodi:nodetypes="ccccc" /><path
       style="fill:#990101"
       d="m 6400,0 h 400 v 207.99998 h -400 z"
       id="path717"
       sodipodi:nodetypes="ccccc" /></g></svg>
